<svg width="512" height="398" viewBox="0 0 512 398" fill="none" xmlns="http://www.w3.org/2000/svg">
<path d="M1.28588 384.627C7.76294 378.149 16.3356 369.196 27.0036 357.766C38.0527 346.336 49.8638 333.762 62.4369 320.046C75.3909 305.949 87.964 292.233 100.156 278.897C112.729 265.181 123.778 252.799 133.303 241.749C143.21 230.319 150.449 221.555 155.021 215.46C164.546 203.649 173.69 191.837 182.453 180.026C191.217 168.215 199.218 156.594 206.456 145.164C214.077 133.353 220.553 121.922 225.887 110.873C231.222 99.8238 235.412 89.1557 238.46 78.8685C241.509 68.5813 243.032 58.8656 243.032 49.7214C243.032 41.3393 241.889 34.2906 239.603 28.5755C237.698 22.8604 234.84 18.6693 231.031 16.0023C227.602 12.9542 223.41 11.4302 218.458 11.4302C214.266 11.4302 209.885 12.5732 205.313 14.8593C201.121 16.7644 196.74 19.6219 192.168 23.4319C187.977 26.861 183.976 31.0521 180.167 36.0052C176.357 40.9582 172.737 46.2924 169.308 52.0075C162.069 63.4377 155.402 77.5349 149.306 94.2993C143.21 111.064 137.876 129.161 133.303 148.593C129.112 167.643 125.493 187.264 122.445 207.458C119.778 227.652 118.254 247.273 117.873 266.324C117.492 285.375 118.254 303.092 120.159 319.475C122.064 335.477 125.493 349.193 130.446 360.623C132.732 365.576 135.018 369.767 137.304 373.197C139.971 376.245 142.638 378.721 145.305 380.626C148.353 382.15 151.401 382.912 154.449 382.912C157.116 382.912 160.545 382.15 164.736 380.626C168.927 379.103 173.69 376.626 179.024 373.197C184.739 369.387 191.217 364.243 198.455 357.766C205.693 351.288 213.695 343.287 222.458 333.762C231.602 324.238 241.509 312.807 252.176 299.472C253.7 297.948 255.034 297.186 256.177 297.186C257.7 297.186 259.034 297.757 260.177 298.9C261.32 299.663 262.083 300.806 262.464 302.329C262.844 303.472 262.464 304.806 261.32 306.33C250.653 319.666 240.555 331.476 231.031 341.763C221.887 351.67 213.314 360.052 205.313 366.91C197.692 373.768 190.645 379.292 184.167 383.484C178.072 387.293 172.547 389.961 167.594 391.485C162.641 393.391 158.259 394.342 154.449 394.342C149.496 394.342 144.924 393.008 140.733 390.342C136.542 388.056 132.732 384.818 129.303 380.626C125.874 376.054 122.635 370.719 119.587 364.624C114.634 352.813 111.015 338.715 108.729 322.332C106.824 305.567 106.062 287.47 106.443 268.039C107.205 248.227 108.919 228.224 111.586 208.03C114.253 187.456 117.682 167.453 121.873 148.021C126.445 128.209 131.779 109.921 137.875 93.1563C143.971 76.0109 150.449 61.3422 157.307 49.1499C161.498 42.6727 165.879 36.3861 170.451 30.2901C175.023 24.194 179.786 19.0504 184.739 14.8593C189.691 10.2872 195.026 6.66762 200.741 4.00056C206.456 1.33351 212.362 0 218.458 0C224.173 0 229.125 1.14302 233.317 3.42905C237.508 5.71509 241.127 8.95365 244.175 13.1447C247.604 17.3359 250.081 22.4795 251.605 28.5755C253.511 34.6716 254.462 41.7203 254.462 49.7214C254.462 60.0086 252.939 70.6768 249.89 81.7261C246.842 92.3942 242.461 103.634 236.746 115.445C231.031 126.875 224.364 138.687 216.743 150.879C209.122 162.69 200.741 174.691 191.597 186.884C182.833 198.695 173.69 210.507 164.165 222.318C159.212 228.413 151.782 237.177 141.876 248.607C132.351 259.657 121.302 272.039 108.729 285.755C96.5366 299.472 83.9635 313.379 71.0094 327.476C58.4363 341.572 46.6253 354.337 35.5762 365.767C24.9081 377.197 16.5259 385.961 10.43 392.056C8.52494 393.58 6.81042 394.342 5.28642 394.342C4.14341 394.342 3.0004 393.58 1.85739 392.056C0.714378 390.913 0.142874 389.77 0.142874 388.627C-0.238123 387.104 0.142874 385.77 1.28588 384.627ZM252.421 299.472C266.9 281.946 280.236 265.372 292.428 249.75C305.001 234.128 316.431 219.269 326.719 205.172C337.386 190.694 347.102 177.168 355.865 164.595C364.627 151.641 372.248 139.639 378.725 128.59C385.201 117.541 390.536 107.063 394.728 97.1568C399.3 87.2506 402.729 78.1064 405.015 69.7243C407.301 60.9611 408.444 52.7696 408.444 45.1494C408.444 38.2912 407.301 32.3856 405.015 27.4325C403.109 22.4795 399.871 18.6693 395.299 16.0023C391.107 12.9542 385.964 11.4302 379.868 11.4302C376.439 11.4302 373.01 12.0017 369.581 13.1447C366.533 13.9068 363.484 15.4308 360.437 17.7168C357.389 19.6219 354.34 22.0984 351.293 25.1465C348.245 27.8135 345.007 31.4331 341.578 36.0052C335.863 43.6254 330.719 53.3411 326.147 65.1522C321.575 76.5825 317.383 89.5366 313.574 104.015C309.763 118.493 306.334 133.543 303.287 149.164C300.619 164.786 298.333 180.406 296.429 196.028C294.904 211.65 293.571 226.699 292.428 241.178C291.666 255.274 291.285 268.039 291.285 279.469C291.285 296.995 292.237 312.425 294.143 325.761C296.047 338.715 298.715 349.765 302.144 358.909C305.953 367.673 310.145 374.34 314.717 378.912C319.669 383.484 324.813 385.77 330.148 385.77C335.863 385.77 341.578 384.436 347.293 381.769C353.008 378.721 358.723 374.148 364.438 368.053C370.533 361.957 376.82 354.528 383.297 345.764C387.869 339.286 392.25 332.048 396.442 324.047C400.632 316.046 404.252 307.473 407.301 298.329C410.347 289.184 412.633 279.469 414.159 269.182C415.682 258.894 416.445 248.416 416.445 237.749C416.445 232.414 415.873 226.699 414.73 220.603C413.587 214.125 411.682 208.601 409.015 204.029C406.729 199.077 403.872 196.6 400.443 196.6C399.3 196.6 398.346 197.552 397.585 199.457C396.822 200.981 396.251 203.458 395.871 206.887C395.488 209.936 395.299 213.936 395.299 218.889C395.299 228.033 396.631 237.749 399.3 248.036C401.966 257.942 405.395 267.658 409.587 277.183C414.159 286.327 419.111 294.708 424.446 302.329C430.161 309.95 436.065 316.045 442.162 320.618C448.258 324.809 454.353 326.904 460.451 326.904C462.737 326.904 465.023 326.713 467.309 326.333C469.975 325.57 472.452 324.427 474.738 322.904C477.405 321.38 480.071 319.475 482.739 317.189C485.786 314.902 488.835 312.236 491.883 309.187C494.93 306.139 498.17 302.71 501.599 298.9C502.742 297.377 504.074 296.805 505.599 297.186C507.123 297.186 508.457 297.757 509.6 298.9C510.743 299.663 511.504 300.806 511.886 302.329C512.266 303.853 511.695 305.187 510.171 306.33C506.742 310.521 503.313 314.331 499.884 317.76C496.455 321.189 493.026 324.238 489.597 326.904C486.549 329.19 483.311 331.285 479.882 333.191C476.833 334.714 473.595 336.048 470.166 337.191C467.118 337.954 463.88 338.334 460.451 338.334C452.449 338.334 444.638 335.857 437.019 330.905C429.779 325.952 422.921 319.475 416.445 311.473C409.967 303.092 404.252 293.565 399.3 282.898C394.345 272.23 390.536 261.561 387.869 250.893C385.201 239.843 383.869 229.176 383.869 218.889C383.869 211.65 384.63 205.935 386.155 201.743C388.059 197.171 390.155 193.933 392.441 192.028C394.728 189.742 397.203 188.599 399.871 188.599C406.347 188.599 411.682 191.265 415.873 196.6C420.063 201.934 423.112 208.41 425.015 216.031C426.921 223.652 427.875 230.89 427.875 237.749C427.875 249.179 426.921 260.229 425.015 270.896C423.492 281.564 421.017 291.851 417.588 301.758C414.539 311.282 410.919 320.426 406.729 329.19C402.538 337.572 397.774 345.384 392.441 352.622C385.964 361.766 379.297 369.767 372.439 376.626C365.961 383.103 359.103 388.056 351.865 391.485C345.007 395.294 337.766 397.2 330.148 397.2C322.146 397.2 315.097 394.534 309.002 389.199C302.905 383.864 297.572 376.054 293 365.767C288.808 355.48 285.57 343.098 283.284 328.619C280.998 314.14 279.855 297.757 279.855 279.469C279.855 267.658 280.236 254.513 280.998 240.035C282.141 225.556 283.473 210.507 284.999 194.885C286.902 178.883 289.188 162.881 291.857 146.878C294.904 130.876 298.333 115.445 302.144 100.586C305.953 85.7266 310.334 72.2009 315.288 60.0086C320.621 47.8163 326.336 37.5291 332.432 29.1471C335.863 24.575 339.481 20.5744 343.292 17.1453C347.102 13.3352 350.911 10.2872 354.722 8.00115C358.912 5.33409 363.104 3.42905 367.295 2.28601C371.485 0.762003 375.677 0 379.868 0C387.869 0 394.917 1.90502 401.014 5.71509C407.11 9.52517 411.682 14.8593 414.73 21.7174C418.159 28.1946 419.874 36.0052 419.874 45.1494C419.874 52.7696 418.92 60.5801 417.016 68.5813C415.491 76.5824 412.825 84.9645 409.015 93.7278C405.586 102.491 401.203 111.826 395.871 121.732C390.916 131.257 385.012 141.354 378.154 152.022C371.296 162.69 363.675 173.93 355.294 185.741C347.293 197.552 338.338 209.936 328.433 222.889C318.526 235.462 307.859 248.798 296.429 262.895C285.379 276.611 273.758 291.09 261.567 306.33C260.424 307.853 259.09 308.616 257.566 308.616C256.041 308.616 254.707 308.235 253.564 307.473C252.421 306.33 251.66 304.996 251.278 303.472C250.898 301.949 251.278 300.615 252.421 299.472Z" fill="#F5F5F2" style="fill:#F5F5F2;fill:color(display-p3 0.9608 0.9608 0.9490);fill-opacity:1;"/>
</svg>
